<?xml version="1.0" standalone="no"?>
<!DOCTYPE svg PUBLIC "-//W3C//DTD SVG 20010904//EN"
 "http://www.w3.org/TR/2001/REC-SVG-20010904/DTD/svg10.dtd">
<svg version="1.0" xmlns="http://www.w3.org/2000/svg"
 width="1000.000000pt" height="651.000000pt" viewBox="0 0 1000.000000 651.000000"
 preserveAspectRatio="xMidYMid meet">
<metadata>
Created by potrace 1.16, written by Peter Selinger 2001-2019
</metadata>
<g transform="translate(0.000000,651.000000) scale(0.100000,-0.100000)"
fill="#000000" stroke="none">
<path d="M2155 4048 c-51 -55 -65 -64 -141 -89 -159 -54 -297 -134 -339 -198
l-25 -37 2 -514 3 -514 115 -51 115 -52 3 -64 c2 -45 8 -68 19 -76 25 -19
1136 -19 1151 0 6 7 12 41 14 76 l3 64 115 50 c63 27 118 55 122 61 12 18 9
975 -2 1018 -22 77 -187 183 -384 245 -47 15 -86 32 -86 38 0 6 -22 32 -48 58
l-48 47 -266 0 -266 0 -57 -62z m432 -112 c-56 -74 -104 -135 -107 -135 -3 0
-51 61 -107 135 l-102 134 209 0 209 0 -102 -134z m-244 -29 l99 -128 -42 -55
c-24 -30 -44 -53 -45 -52 -10 13 -185 319 -185 325 0 4 12 20 27 35 22 23 30
26 38 16 5 -8 54 -71 108 -141z m447 91 c0 -7 -173 -312 -185 -326 -1 -1 -21
22 -45 52 l-42 55 108 141 108 140 28 -27 c15 -15 28 -31 28 -35z m-553 -208
c54 -93 103 -172 110 -174 7 -3 35 22 63 55 l50 61 0 -621 0 -621 -260 0 -260
0 0 698 0 698 98 37 c53 20 98 36 99 37 1 0 46 -76 100 -170z m746 113 l47
-18 0 -697 0 -698 -265 0 -265 0 0 621 0 621 47 -56 c26 -31 54 -56 63 -56 9
0 54 67 113 169 l97 169 58 -18 c31 -10 78 -27 105 -37z m-1093 -654 c0 -360
-4 -609 -9 -607 -5 2 -50 21 -100 43 l-91 40 0 498 0 497 33 35 c30 32 140
105 159 105 4 0 8 -275 8 -611z m1241 585 c28 -14 71 -44 95 -66 l44 -41 0
-502 0 -502 -94 -42 c-52 -22 -97 -41 -100 -41 -3 0 -6 275 -6 610 0 336 2
610 5 610 3 0 28 -12 56 -26z"/>
<path d="M2040 3264 l0 -176 29 -29 c28 -28 33 -29 123 -29 75 0 99 4 125 20
41 25 45 46 41 235 l-3 150 -157 3 -158 3 0 -177z m280 96 l0 -40 -120 0 -120
0 0 40 0 40 120 0 120 0 0 -40z m0 -170 c0 -109 -11 -120 -118 -120 -113 0
-122 9 -122 116 l0 84 120 0 120 0 0 -80z"/>
<path d="M5002 3283 l3 -468 35 0 35 0 5 190 c5 179 6 192 30 234 37 66 69 85
148 89 57 3 71 1 95 -18 55 -44 60 -67 65 -293 l5 -208 31 3 31 3 0 220 c0
210 -1 222 -23 262 -12 24 -41 55 -64 70 -35 24 -51 27 -117 28 -85 0 -142
-23 -180 -71 l-21 -26 -2 223 -3 224 -38 3 -37 3 2 -468z"/>
<path d="M3672 3253 l3 -438 40 0 40 0 3 207 2 206 133 4 c121 3 137 5 190 31
68 34 102 75 117 142 24 106 -22 205 -117 252 -56 27 -64 28 -236 31 l-177 4
2 -439z m384 331 c49 -36 65 -66 66 -122 0 -63 -24 -108 -72 -133 -29 -16 -57
-19 -162 -19 l-128 0 0 151 0 151 134 -4 c117 -3 138 -6 162 -24z"/>
<path d="M4485 3387 c-48 -16 -84 -34 -108 -55 -16 -15 -16 -16 4 -38 l21 -23
40 26 c31 21 55 27 117 31 118 7 164 -25 177 -121 l7 -47 -86 0 c-212 0 -317
-63 -317 -191 0 -104 69 -164 190 -163 84 1 128 16 171 60 l34 35 5 -43 c5
-40 7 -43 37 -46 l33 -3 -6 223 c-5 201 -8 228 -27 268 -30 62 -86 92 -181 97
-41 1 -88 -3 -111 -10z m251 -343 c-8 -70 -26 -106 -72 -140 -42 -33 -134 -45
-184 -24 -73 30 -92 107 -40 158 43 44 100 60 209 61 l94 1 -7 -56z"/>
<path d="M5879 3385 c-30 -10 -60 -29 -82 -54 l-36 -40 -3 47 c-3 46 -3 47
-38 47 l-35 0 0 -52 c1 -29 2 -159 3 -288 l2 -235 34 0 34 0 4 188 c3 167 6
191 25 227 40 75 89 105 171 105 56 0 88 -15 116 -53 19 -26 21 -45 26 -245
l5 -217 35 0 35 0 -1 211 0 211 -30 59 c-22 44 -38 63 -68 78 -50 25 -137 30
-197 11z"/>
<path d="M6484 3382 c-61 -21 -104 -48 -104 -64 0 -6 7 -19 16 -29 15 -16 19
-16 71 12 70 37 168 41 221 9 36 -22 62 -72 62 -120 l0 -30 -87 0 c-198 -1
-301 -59 -311 -175 -6 -72 17 -118 77 -153 38 -22 57 -26 116 -26 82 1 128 18
173 64 l32 34 0 -35 c0 -46 12 -61 45 -57 l27 3 -1 185 c-1 102 -4 203 -8 225
-8 55 -37 109 -70 133 -62 44 -172 54 -259 24z m266 -314 c0 -51 -18 -104 -47
-139 -75 -88 -249 -77 -277 18 -26 92 64 151 232 152 l92 1 0 -32z"/>
<path d="M8005 3387 c-48 -16 -84 -34 -108 -55 -16 -15 -16 -16 4 -38 l21 -23
40 26 c31 21 55 27 117 31 118 7 164 -25 177 -121 l7 -47 -86 0 c-212 0 -317
-63 -317 -191 0 -104 69 -163 190 -163 84 0 128 16 171 60 l34 35 5 -43 c5
-40 7 -43 37 -46 l33 -3 -6 223 c-5 201 -8 228 -27 268 -30 62 -86 92 -181 97
-41 1 -88 -3 -111 -10z m251 -343 c-13 -109 -67 -165 -167 -172 -95 -7 -159
34 -159 102 0 78 90 125 239 126 l94 0 -7 -56z"/>
<path d="M6940 3376 c0 -18 158 -523 171 -548 6 -11 21 -18 40 -18 37 0 41 9
130 277 35 106 66 189 70 185 3 -4 41 -104 84 -222 43 -118 80 -221 82 -227 6
-15 69 -18 78 -4 8 14 166 553 163 556 -2 2 -18 5 -35 8 -30 5 -33 2 -41 -26
-103 -366 -126 -447 -128 -444 -2 2 -41 109 -87 238 l-83 234 -35 0 -34 0 -81
-240 -81 -240 -12 40 c-6 22 -37 130 -69 240 l-58 200 -37 3 c-28 2 -37 -1
-37 -12z"/>
</g>
</svg>
